<svg id="Layer_1" data-name="Layer 1" xmlns="http://www.w3.org/2000/svg" viewBox="0 0 819.48 144.23"><defs><style>.cls-1{fill:#fff;}</style></defs><path class="cls-1" d="M273.25,19.79a72,72,0,0,0-120.74,41,17.84,17.84,0,0,0,19.06,20.47l.21,0A44.81,44.81,0,0,0,205.3,61.07a3,3,0,0,0-.38-3.73L192.46,44.88a3,3,0,0,1,2.09-5.05h55.32a5.91,5.91,0,0,1,5.91,5.91v55.32a3,3,0,0,1-5.05,2.09L237,89.41a3,3,0,0,0-4.29.13,68,68,0,0,1-63.25,21.51,3,3,0,0,0-2.94,4.69A72,72,0,1,0,273.25,19.79Z"/><path class="cls-1" d="M148.74,80.09V135.4a3,3,0,0,1-5.06,2.1l-13.81-13.82a3,3,0,0,0-4.13,0c-26.21,25.18-70,27.16-98.22,4-28.33-22.12-36.15-63-17.06-93.6C38-10.66,103.15-11,131.79,31a3,3,0,0,1-1,4.24L108.71,48a3,3,0,0,1-3.78-.7A40.58,40.58,0,0,0,77.54,32.82C52.36,30.46,30.7,52,36,77.27c6.24,28.17,42,38.44,62.21,18.9a3,3,0,0,0,0-4.19L85.41,79.23a3,3,0,0,1,2.09-5.06h55.32A5.92,5.92,0,0,1,148.74,80.09Z"/><path class="cls-1" d="M335.06,32H294.82a3,3,0,0,1-3-3V8.76a3,3,0,0,1,3-3H412.36a3,3,0,0,1,3,3V29a3,3,0,0,1-3,3H372.12a3,3,0,0,0-3,3V135.38a3,3,0,0,1-3,3H341a3,3,0,0,1-3-3V35A3,3,0,0,0,335.06,32Z"/><path class="cls-1" d="M483.82,31.14a41,41,0,1,1-41,41,41,41,0,0,1,41-41m0-31.13a72.11,72.11,0,1,0,72.1,72.11A72.1,72.1,0,0,0,483.82,0Z"/><path class="cls-1" d="M747.37,31.14a41,41,0,1,1-41,41,41,41,0,0,1,41-41m0-31.13a72.11,72.11,0,1,0,72.11,72.11A72.11,72.11,0,0,0,747.37,0Z"/><path class="cls-1" d="M687.75,133.49,634.24,65.21a3.07,3.07,0,0,1,.12-3.92l44.53-50.4a3.06,3.06,0,0,0-2.3-5.09h-30.8a3.07,3.07,0,0,0-2.3,1L600.32,56.07a3.06,3.06,0,0,1-5.37-2V8.86a3.06,3.06,0,0,0-3.06-3.06h-25a3.06,3.06,0,0,0-3.06,3.06V135.38a3.06,3.06,0,0,0,3.06,3.06h25a3.06,3.06,0,0,0,3.06-3.06V108.83a7.1,7.1,0,0,1,1.8-4.73l13-14.73a3.06,3.06,0,0,1,4.71.14l37.38,47.76a3.07,3.07,0,0,0,2.42,1.17h31A3.06,3.06,0,0,0,687.75,133.49Z"/></svg>