<svg xmlns="http://www.w3.org/2000/svg" xmlns:xlink="http://www.w3.org/1999/xlink" width="500" zoomAndPan="magnify" viewBox="0 0 375 374.999991" height="500" preserveAspectRatio="xMidYMid meet" version="1.0"><defs><g/><clipPath id="id1"><path d="M 171 91 L 309.925781 91 L 309.925781 280.765625 L 171 280.765625 Z M 171 91 " clip-rule="nonzero"/></clipPath><clipPath id="id2"><path d="M 65.425781 35.515625 L 309.925781 35.515625 L 309.925781 232 L 65.425781 232 Z M 65.425781 35.515625 " clip-rule="nonzero"/></clipPath><clipPath id="id3"><path d="M 171 155 L 227 155 L 227 280.765625 L 171 280.765625 Z M 171 155 " clip-rule="nonzero"/></clipPath><clipPath id="id4"><path d="M 65.425781 35.515625 L 240 35.515625 L 240 232 L 65.425781 232 Z M 65.425781 35.515625 " clip-rule="nonzero"/></clipPath></defs><g clip-path="url(#id1)"><path fill="#cae000" d="M 277.273438 94.03125 L 265.429688 113.730469 L 230.691406 171.492188 L 225.851562 155.101562 C 186.941406 171.78125 149.484375 234.898438 187.675781 280.695312 C 201.488281 274.179688 214.425781 265.652344 226.390625 255.199219 C 234.144531 248.429688 241.484375 240.839844 248.386719 232.46875 C 264.238281 213.234375 277.882812 189.789062 288.9375 162.777344 C 300.402344 134.75 306.699219 108.570312 309.925781 91.914062 L 277.273438 94.03125 " fill-opacity="1" fill-rule="nonzero"/></g><g clip-path="url(#id2)"><path fill="#86cbdb" d="M 277.273438 94.03125 L 186.945312 99.882812 L 199.152344 111.515625 C 199.152344 111.515625 121.96875 152.507812 126.019531 231.304688 C 126.019531 231.304688 126.019531 231.300781 126.015625 231.300781 C 113.574219 215.988281 102.515625 198.0625 93.023438 177.832031 C 90.726562 172.945312 88.527344 167.925781 86.417969 162.777344 C 74.949219 134.75 68.652344 108.570312 65.425781 91.914062 C 65.425781 91.914062 126.953125 51.328125 187.675781 35.601562 C 205.324219 40.167969 223.035156 46.839844 239.285156 54 C 250.996094 59.164062 261.949219 64.582031 271.574219 69.65625 C 294.039062 81.496094 309.242188 91.464844 309.90625 91.898438 C 309.917969 91.910156 309.925781 91.914062 309.925781 91.914062 L 277.273438 94.03125 " fill-opacity="1" fill-rule="nonzero"/></g><g clip-path="url(#id3)"><path fill="#fbad18" d="M 226.390625 255.199219 C 214.429688 265.652344 201.488281 274.179688 187.675781 280.695312 C 149.484375 234.898438 186.941406 171.78125 225.851562 155.101562 C 225.851562 155.101562 165.359375 213.667969 226.390625 255.199219 " fill-opacity="1" fill-rule="nonzero"/></g><g clip-path="url(#id4)"><path fill="#f05b82" d="M 126.015625 231.300781 C 113.574219 215.988281 102.515625 198.0625 93.023438 177.832031 C 90.726562 172.945312 88.527344 167.925781 86.417969 162.777344 C 74.949219 134.75 68.652344 108.570312 65.425781 91.914062 C 65.425781 91.914062 126.953125 51.328125 187.675781 35.601562 C 205.324219 40.167969 223.035156 46.839844 239.285156 54 C 73.664062 91.9375 125.699219 230.457031 126.015625 231.300781 " fill-opacity="1" fill-rule="nonzero"/></g><g fill="#000000" fill-opacity="1"><g transform="translate(66.751919, 328.49825)"><g><path d="M 19.578125 -9.875 C 19.578125 -6.144531 18.664062 -3.488281 16.84375 -1.90625 C 15.03125 -0.320312 12.242188 0.46875 8.484375 0.46875 C 6.710938 0.46875 4.785156 0.28125 2.703125 -0.09375 C 2.140625 -0.1875 1.75 -0.378906 1.53125 -0.671875 C 1.320312 -0.972656 1.234375 -1.445312 1.265625 -2.09375 L 1.671875 -7.40625 C 1.734375 -8.125 2.046875 -8.484375 2.609375 -8.484375 C 2.984375 -8.484375 3.359375 -8.4375 3.734375 -8.34375 C 4.410156 -8.21875 4.953125 -8.15625 5.359375 -8.15625 C 6.535156 -8.15625 7.4375 -8.492188 8.0625 -9.171875 C 8.6875 -9.859375 9 -10.960938 9 -12.484375 L 9 -33.515625 C 9 -33.859375 9.082031 -34.117188 9.25 -34.296875 C 9.425781 -34.484375 9.648438 -34.578125 9.921875 -34.578125 L 18.734375 -34.578125 C 19.296875 -34.578125 19.578125 -34.253906 19.578125 -33.609375 Z M 19.578125 -9.875 "/></g></g></g><g fill="#000000" fill-opacity="1"><g transform="translate(88.511187, 328.49825)"><g><path d="M 11.28125 -1.359375 C 11.28125 -0.859375 11.160156 -0.503906 10.921875 -0.296875 C 10.691406 -0.0976562 10.296875 0 9.734375 0 L 2.75 0 C 2.28125 0 1.953125 -0.09375 1.765625 -0.28125 C 1.578125 -0.46875 1.484375 -0.765625 1.484375 -1.171875 L 1.484375 -8.34375 C 1.484375 -8.6875 1.5625 -8.941406 1.71875 -9.109375 C 1.875 -9.285156 2.09375 -9.375 2.375 -9.375 L 10.4375 -9.375 C 11 -9.375 11.28125 -9.0625 11.28125 -8.4375 Z M 11.28125 -1.359375 "/></g></g></g><g fill="#000000" fill-opacity="1"><g transform="translate(101.510839, 328.49825)"><g><path d="M 2 0 C 1.75 0 1.546875 -0.0820312 1.390625 -0.25 C 1.242188 -0.425781 1.171875 -0.671875 1.171875 -0.984375 C 1.171875 -1.203125 1.21875 -1.445312 1.3125 -1.71875 L 12.578125 -33.515625 C 12.734375 -33.921875 12.90625 -34.195312 13.09375 -34.34375 C 13.28125 -34.5 13.578125 -34.578125 13.984375 -34.578125 L 23.171875 -34.578125 C 23.535156 -34.578125 23.863281 -34.460938 24.15625 -34.234375 C 24.457031 -34.003906 24.6875 -33.703125 24.84375 -33.328125 L 36.03125 -1.578125 C 36.09375 -1.335938 36.125 -1.15625 36.125 -1.03125 C 36.125 -0.75 36.0625 -0.503906 35.9375 -0.296875 C 35.8125 -0.0976562 35.625 0 35.375 0 L 26.234375 0 C 25.710938 0 25.375 -0.265625 25.21875 -0.796875 L 23.390625 -6.15625 C 23.304688 -6.375 23.222656 -6.519531 23.140625 -6.59375 C 23.066406 -6.675781 22.921875 -6.71875 22.703125 -6.71875 L 12.8125 -6.71875 C 12.445312 -6.71875 12.21875 -6.546875 12.125 -6.203125 L 10.203125 -0.703125 C 10.015625 -0.234375 9.644531 0 9.09375 0 Z M 20.375 -14.640625 C 20.707031 -14.640625 20.875 -14.789062 20.875 -15.09375 C 20.875 -15.15625 20.84375 -15.3125 20.78125 -15.5625 L 17.984375 -23.53125 C 17.921875 -23.6875 17.828125 -23.765625 17.703125 -23.765625 C 17.585938 -23.765625 17.5 -23.6875 17.4375 -23.53125 L 14.59375 -15.609375 C 14.53125 -15.484375 14.5 -15.328125 14.5 -15.140625 C 14.5 -14.804688 14.6875 -14.640625 15.0625 -14.640625 Z M 20.375 -14.640625 "/></g></g></g><g fill="#000000" fill-opacity="1"><g transform="translate(138.739223, 328.49825)"><g><path d="M 11.28125 -1.359375 C 11.28125 -0.859375 11.160156 -0.503906 10.921875 -0.296875 C 10.691406 -0.0976562 10.296875 0 9.734375 0 L 2.75 0 C 2.28125 0 1.953125 -0.09375 1.765625 -0.28125 C 1.578125 -0.46875 1.484375 -0.765625 1.484375 -1.171875 L 1.484375 -8.34375 C 1.484375 -8.6875 1.5625 -8.941406 1.71875 -9.109375 C 1.875 -9.285156 2.09375 -9.375 2.375 -9.375 L 10.4375 -9.375 C 11 -9.375 11.28125 -9.0625 11.28125 -8.4375 Z M 11.28125 -1.359375 "/></g></g></g><g fill="#000000" fill-opacity="1"><g transform="translate(151.738874, 328.49825)"><g><path d="M 32.671875 -1.484375 C 32.734375 -1.367188 32.765625 -1.203125 32.765625 -0.984375 C 32.765625 -0.703125 32.675781 -0.46875 32.5 -0.28125 C 32.332031 -0.09375 32.109375 0 31.828125 0 L 22.796875 0 C 22.140625 0 21.71875 -0.328125 21.53125 -0.984375 L 17.15625 -13 C 17.0625 -13.25 16.90625 -13.4375 16.6875 -13.5625 C 16.46875 -13.6875 16.140625 -13.75 15.703125 -13.75 L 13.5625 -13.75 C 13.375 -13.75 13.234375 -13.6875 13.140625 -13.5625 C 13.046875 -13.4375 13 -13.328125 13 -13.234375 L 13 -1.359375 C 13 -0.859375 12.875 -0.503906 12.625 -0.296875 C 12.382812 -0.0976562 12 0 11.46875 0 L 3.640625 0 C 3.171875 0 2.847656 -0.09375 2.671875 -0.28125 C 2.503906 -0.46875 2.421875 -0.765625 2.421875 -1.171875 L 2.421875 -33.515625 C 2.421875 -34.222656 2.71875 -34.578125 3.3125 -34.578125 L 18.875 -34.578125 C 23.382812 -34.578125 26.878906 -33.710938 29.359375 -31.984375 C 31.847656 -30.265625 33.09375 -27.835938 33.09375 -24.703125 C 33.09375 -22.554688 32.523438 -20.644531 31.390625 -18.96875 C 30.253906 -17.289062 28.785156 -16.109375 26.984375 -15.421875 C 26.796875 -15.328125 26.703125 -15.175781 26.703125 -14.96875 C 26.703125 -14.875 26.734375 -14.734375 26.796875 -14.546875 Z M 18.453125 -20.6875 C 19.640625 -20.6875 20.550781 -20.988281 21.1875 -21.59375 C 21.820312 -22.207031 22.140625 -23.023438 22.140625 -24.046875 C 22.140625 -25.203125 21.757812 -26.097656 21 -26.734375 C 20.238281 -27.367188 19.296875 -27.6875 18.171875 -27.6875 L 14.078125 -27.6875 C 13.671875 -27.6875 13.390625 -27.613281 13.234375 -27.46875 C 13.078125 -27.332031 13 -27.09375 13 -26.75 L 13 -21.671875 C 13 -21.328125 13.050781 -21.078125 13.15625 -20.921875 C 13.269531 -20.765625 13.484375 -20.6875 13.796875 -20.6875 Z M 18.453125 -20.6875 "/></g></g></g><g fill="#000000" fill-opacity="1"><g transform="translate(186.171638, 328.49825)"><g><path d="M 11.28125 -1.359375 C 11.28125 -0.859375 11.160156 -0.503906 10.921875 -0.296875 C 10.691406 -0.0976562 10.296875 0 9.734375 0 L 2.75 0 C 2.28125 0 1.953125 -0.09375 1.765625 -0.28125 C 1.578125 -0.46875 1.484375 -0.765625 1.484375 -1.171875 L 1.484375 -8.34375 C 1.484375 -8.6875 1.5625 -8.941406 1.71875 -9.109375 C 1.875 -9.285156 2.09375 -9.375 2.375 -9.375 L 10.4375 -9.375 C 11 -9.375 11.28125 -9.0625 11.28125 -8.4375 Z M 11.28125 -1.359375 "/></g></g></g><g fill="#000000" fill-opacity="1"><g transform="translate(199.17129, 328.49825)"><g><path d="M 32.953125 -34.578125 C 33.234375 -34.578125 33.457031 -34.492188 33.625 -34.328125 C 33.800781 -34.160156 33.890625 -33.9375 33.890625 -33.65625 C 33.890625 -33.46875 33.875 -33.328125 33.84375 -33.234375 L 23.03125 -1.171875 C 22.8125 -0.390625 22.234375 0 21.296875 0 L 13.75 0 C 12.8125 0 12.238281 -0.390625 12.03125 -1.171875 L 1.21875 -33.234375 C 1.15625 -33.421875 1.125 -33.5625 1.125 -33.65625 C 1.125 -33.9375 1.210938 -34.160156 1.390625 -34.328125 C 1.578125 -34.492188 1.8125 -34.578125 2.09375 -34.578125 L 11.09375 -34.578125 C 11.6875 -34.578125 12.078125 -34.253906 12.265625 -33.609375 L 18.5 -13.140625 C 18.5625 -12.921875 18.640625 -12.8125 18.734375 -12.8125 C 18.796875 -12.8125 18.875 -12.9375 18.96875 -13.1875 L 24.796875 -33.609375 C 24.859375 -33.921875 25.003906 -34.160156 25.234375 -34.328125 C 25.472656 -34.492188 25.734375 -34.578125 26.015625 -34.578125 Z M 32.953125 -34.578125 "/></g></g></g><g fill="#000000" fill-opacity="1"><g transform="translate(234.163177, 328.49825)"><g><path d="M 11.28125 -1.359375 C 11.28125 -0.859375 11.160156 -0.503906 10.921875 -0.296875 C 10.691406 -0.0976562 10.296875 0 9.734375 0 L 2.75 0 C 2.28125 0 1.953125 -0.09375 1.765625 -0.28125 C 1.578125 -0.46875 1.484375 -0.765625 1.484375 -1.171875 L 1.484375 -8.34375 C 1.484375 -8.6875 1.5625 -8.941406 1.71875 -9.109375 C 1.875 -9.285156 2.09375 -9.375 2.375 -9.375 L 10.4375 -9.375 C 11 -9.375 11.28125 -9.0625 11.28125 -8.4375 Z M 11.28125 -1.359375 "/></g></g></g><g fill="#000000" fill-opacity="1"><g transform="translate(247.162829, 328.49825)"><g><path d="M 12.171875 -34.578125 C 12.722656 -34.578125 13 -34.253906 13 -33.609375 L 13 -1.359375 C 13 -0.859375 12.875 -0.503906 12.625 -0.296875 C 12.382812 -0.0976562 12 0 11.46875 0 L 3.6875 0 C 3.21875 0 2.890625 -0.09375 2.703125 -0.28125 C 2.515625 -0.46875 2.421875 -0.765625 2.421875 -1.171875 L 2.421875 -33.515625 C 2.421875 -33.859375 2.5 -34.117188 2.65625 -34.296875 C 2.8125 -34.484375 3.03125 -34.578125 3.3125 -34.578125 Z M 12.171875 -34.578125 "/></g></g></g><g fill="#000000" fill-opacity="1"><g transform="translate(262.585356, 328.49825)"><g><path d="M 11.28125 -1.359375 C 11.28125 -0.859375 11.160156 -0.503906 10.921875 -0.296875 C 10.691406 -0.0976562 10.296875 0 9.734375 0 L 2.75 0 C 2.28125 0 1.953125 -0.09375 1.765625 -0.28125 C 1.578125 -0.46875 1.484375 -0.765625 1.484375 -1.171875 L 1.484375 -8.34375 C 1.484375 -8.6875 1.5625 -8.941406 1.71875 -9.109375 C 1.875 -9.285156 2.09375 -9.375 2.375 -9.375 L 10.4375 -9.375 C 11 -9.375 11.28125 -9.0625 11.28125 -8.4375 Z M 11.28125 -1.359375 "/></g></g></g><g fill="#000000" fill-opacity="1"><g transform="translate(275.585019, 328.49825)"><g><path d="M 23.03125 -25.3125 C 22.28125 -26.113281 21.476562 -26.734375 20.625 -27.171875 C 19.769531 -27.609375 18.535156 -27.828125 16.921875 -27.828125 C 15.304688 -27.828125 14.109375 -27.59375 13.328125 -27.125 C 12.554688 -26.65625 12.171875 -26.097656 12.171875 -25.453125 C 12.171875 -24.328125 13.160156 -23.535156 15.140625 -23.078125 L 22.890625 -21.0625 C 25.710938 -20.351562 27.835938 -19.101562 29.265625 -17.3125 C 30.703125 -15.53125 31.421875 -13.394531 31.421875 -10.90625 C 31.421875 -8.601562 30.8125 -6.597656 29.59375 -4.890625 C 28.382812 -3.179688 26.648438 -1.859375 24.390625 -0.921875 C 22.140625 0.00390625 19.507812 0.46875 16.5 0.46875 C 13.082031 0.46875 9.96875 -0.0976562 7.15625 -1.234375 C 4.34375 -2.367188 2.394531 -3.851562 1.3125 -5.6875 C 1.15625 -6 1.078125 -6.234375 1.078125 -6.390625 C 1.078125 -6.703125 1.242188 -6.976562 1.578125 -7.21875 L 6.390625 -10.53125 C 6.722656 -10.75 7.03125 -10.859375 7.3125 -10.859375 C 7.65625 -10.859375 7.9375 -10.71875 8.15625 -10.4375 C 9.207031 -9.070312 10.273438 -8.109375 11.359375 -7.546875 C 12.453125 -6.992188 13.898438 -6.71875 15.703125 -6.71875 C 17.441406 -6.71875 18.816406 -6.957031 19.828125 -7.4375 C 20.835938 -7.914062 21.34375 -8.578125 21.34375 -9.421875 C 21.34375 -10.003906 21.09375 -10.515625 20.59375 -10.953125 C 20.101562 -11.390625 19.375 -11.71875 18.40625 -11.9375 L 11.328125 -13.65625 C 8.523438 -14.34375 6.300781 -15.625 4.65625 -17.5 C 3.007812 -19.382812 2.1875 -21.550781 2.1875 -24 C 2.1875 -26.019531 2.773438 -27.875 3.953125 -29.5625 C 5.140625 -31.257812 6.820312 -32.597656 9 -33.578125 C 11.175781 -34.554688 13.691406 -35.046875 16.546875 -35.046875 C 19.335938 -35.046875 21.929688 -34.585938 24.328125 -33.671875 C 26.722656 -32.753906 28.445312 -31.535156 29.5 -30.015625 C 29.71875 -29.734375 29.828125 -29.46875 29.828125 -29.21875 C 29.828125 -29 29.71875 -28.800781 29.5 -28.625 L 24.421875 -24.9375 C 24.265625 -24.8125 24.09375 -24.75 23.90625 -24.75 C 23.6875 -24.75 23.394531 -24.9375 23.03125 -25.3125 Z M 23.03125 -25.3125 "/></g></g></g></svg>