<svg xmlns="http://www.w3.org/2000/svg" xmlns:xlink="http://www.w3.org/1999/xlink" width="500" zoomAndPan="magnify" viewBox="0 0 375 374.999991" height="500" preserveAspectRatio="xMidYMid meet" version="1.0"><defs><g/><clipPath id="id1"><path d="M 171 91 L 309.925781 91 L 309.925781 280.765625 L 171 280.765625 Z M 171 91 " clip-rule="nonzero"/></clipPath><clipPath id="id2"><path d="M 65.425781 35.515625 L 309.925781 35.515625 L 309.925781 232 L 65.425781 232 Z M 65.425781 35.515625 " clip-rule="nonzero"/></clipPath><clipPath id="id3"><path d="M 171 155 L 227 155 L 227 280.765625 L 171 280.765625 Z M 171 155 " clip-rule="nonzero"/></clipPath><clipPath id="id4"><path d="M 65.425781 35.515625 L 240 35.515625 L 240 232 L 65.425781 232 Z M 65.425781 35.515625 " clip-rule="nonzero"/></clipPath></defs><g clip-path="url(#id1)"><path fill="#810bcf" d="M 277.273438 94.03125 L 265.429688 113.730469 L 230.691406 171.492188 L 225.851562 155.101562 C 186.941406 171.78125 149.484375 234.898438 187.675781 280.695312 C 201.488281 274.179688 214.425781 265.652344 226.390625 255.199219 C 234.144531 248.429688 241.484375 240.839844 248.386719 232.46875 C 264.238281 213.234375 277.882812 189.789062 288.9375 162.777344 C 300.402344 134.75 306.699219 108.570312 309.925781 91.914062 L 277.273438 94.03125 " fill-opacity="1" fill-rule="nonzero"/></g><g clip-path="url(#id2)"><path fill="#b26ee3" d="M 277.273438 94.03125 L 186.945312 99.882812 L 199.152344 111.515625 C 199.152344 111.515625 121.96875 152.507812 126.019531 231.304688 C 126.019531 231.304688 126.019531 231.300781 126.015625 231.300781 C 113.574219 215.988281 102.515625 198.0625 93.023438 177.832031 C 90.726562 172.945312 88.527344 167.925781 86.417969 162.777344 C 74.949219 134.75 68.652344 108.570312 65.425781 91.914062 C 65.425781 91.914062 126.953125 51.328125 187.675781 35.601562 C 205.324219 40.167969 223.035156 46.839844 239.285156 54 C 250.996094 59.164062 261.949219 64.582031 271.574219 69.65625 C 294.039062 81.496094 309.242188 91.464844 309.90625 91.898438 C 309.917969 91.910156 309.925781 91.914062 309.925781 91.914062 L 277.273438 94.03125 " fill-opacity="1" fill-rule="nonzero"/></g><g clip-path="url(#id3)"><path fill="#b26ee3" d="M 226.390625 255.199219 C 214.429688 265.652344 201.488281 274.179688 187.675781 280.695312 C 149.484375 234.898438 186.941406 171.78125 225.851562 155.101562 C 225.851562 155.101562 165.359375 213.667969 226.390625 255.199219 " fill-opacity="1" fill-rule="nonzero"/></g><g clip-path="url(#id4)"><path fill="#810bcf" d="M 126.015625 231.300781 C 113.574219 215.988281 102.515625 198.0625 93.023438 177.832031 C 90.726562 172.945312 88.527344 167.925781 86.417969 162.777344 C 74.949219 134.75 68.652344 108.570312 65.425781 91.914062 C 65.425781 91.914062 126.953125 51.328125 187.675781 35.601562 C 205.324219 40.167969 223.035156 46.839844 239.285156 54 C 73.664062 91.9375 125.699219 230.457031 126.015625 231.300781 " fill-opacity="1" fill-rule="nonzero"/></g><g fill="#810bcf" fill-opacity="1"><g transform="translate(66.725493, 328.46996)"><g><path d="M 19.5625 -9.875 C 19.5625 -6.144531 18.65625 -3.488281 16.84375 -1.90625 C 15.03125 -0.320312 12.242188 0.46875 8.484375 0.46875 C 6.710938 0.46875 4.785156 0.28125 2.703125 -0.09375 C 2.140625 -0.1875 1.75 -0.378906 1.53125 -0.671875 C 1.320312 -0.972656 1.234375 -1.445312 1.265625 -2.09375 L 1.671875 -7.40625 C 1.734375 -8.125 2.046875 -8.484375 2.609375 -8.484375 C 2.984375 -8.484375 3.359375 -8.4375 3.734375 -8.34375 C 4.410156 -8.21875 4.953125 -8.15625 5.359375 -8.15625 C 6.535156 -8.15625 7.4375 -8.492188 8.0625 -9.171875 C 8.6875 -9.859375 9 -10.960938 9 -12.484375 L 9 -33.5 C 9 -33.84375 9.082031 -34.109375 9.25 -34.296875 C 9.414062 -34.484375 9.640625 -34.578125 9.921875 -34.578125 L 18.734375 -34.578125 C 19.285156 -34.578125 19.5625 -34.25 19.5625 -33.59375 Z M 19.5625 -9.875 "/></g></g></g><g fill="#810bcf" fill-opacity="1"><g transform="translate(88.486995, 328.46996)"><g><path d="M 11.28125 -1.34375 C 11.28125 -0.851562 11.160156 -0.503906 10.921875 -0.296875 C 10.691406 -0.0976562 10.296875 0 9.734375 0 L 2.75 0 C 2.28125 0 1.953125 -0.09375 1.765625 -0.28125 C 1.578125 -0.46875 1.484375 -0.765625 1.484375 -1.171875 L 1.484375 -8.34375 C 1.484375 -8.6875 1.5625 -8.941406 1.71875 -9.109375 C 1.875 -9.273438 2.09375 -9.359375 2.375 -9.359375 L 10.4375 -9.359375 C 11 -9.359375 11.28125 -9.050781 11.28125 -8.4375 Z M 11.28125 -1.34375 "/></g></g></g><g fill="#810bcf" fill-opacity="1"><g transform="translate(101.487975, 328.46996)"><g><path d="M 2 0 C 1.75 0 1.546875 -0.0820312 1.390625 -0.25 C 1.242188 -0.425781 1.171875 -0.671875 1.171875 -0.984375 C 1.171875 -1.191406 1.210938 -1.4375 1.296875 -1.71875 L 12.578125 -33.5 C 12.734375 -33.90625 12.90625 -34.1875 13.09375 -34.34375 C 13.28125 -34.5 13.578125 -34.578125 13.984375 -34.578125 L 23.15625 -34.578125 C 23.53125 -34.578125 23.863281 -34.457031 24.15625 -34.21875 C 24.445312 -33.988281 24.671875 -33.6875 24.828125 -33.3125 L 36.015625 -1.578125 C 36.078125 -1.335938 36.109375 -1.15625 36.109375 -1.03125 C 36.109375 -0.75 36.046875 -0.503906 35.921875 -0.296875 C 35.796875 -0.0976562 35.609375 0 35.359375 0 L 26.234375 0 C 25.703125 0 25.359375 -0.265625 25.203125 -0.796875 L 23.390625 -6.15625 C 23.296875 -6.363281 23.207031 -6.503906 23.125 -6.578125 C 23.050781 -6.660156 22.90625 -6.703125 22.6875 -6.703125 L 12.8125 -6.703125 C 12.4375 -6.703125 12.203125 -6.535156 12.109375 -6.203125 L 10.203125 -0.703125 C 10.015625 -0.234375 9.640625 0 9.078125 0 Z M 20.359375 -14.625 C 20.703125 -14.625 20.875 -14.78125 20.875 -15.09375 C 20.875 -15.15625 20.84375 -15.3125 20.78125 -15.5625 L 17.984375 -23.53125 C 17.921875 -23.6875 17.828125 -23.765625 17.703125 -23.765625 C 17.578125 -23.765625 17.484375 -23.6875 17.421875 -23.53125 L 14.578125 -15.609375 C 14.515625 -15.484375 14.484375 -15.328125 14.484375 -15.140625 C 14.484375 -14.796875 14.671875 -14.625 15.046875 -14.625 Z M 20.359375 -14.625 "/></g></g></g><g fill="#810bcf" fill-opacity="1"><g transform="translate(138.720166, 328.46996)"><g><path d="M 11.28125 -1.34375 C 11.28125 -0.851562 11.160156 -0.503906 10.921875 -0.296875 C 10.691406 -0.0976562 10.296875 0 9.734375 0 L 2.75 0 C 2.28125 0 1.953125 -0.09375 1.765625 -0.28125 C 1.578125 -0.46875 1.484375 -0.765625 1.484375 -1.171875 L 1.484375 -8.34375 C 1.484375 -8.6875 1.5625 -8.941406 1.71875 -9.109375 C 1.875 -9.273438 2.09375 -9.359375 2.375 -9.359375 L 10.4375 -9.359375 C 11 -9.359375 11.28125 -9.050781 11.28125 -8.4375 Z M 11.28125 -1.34375 "/></g></g></g><g fill="#810bcf" fill-opacity="1"><g transform="translate(151.721146, 328.46996)"><g><path d="M 32.65625 -1.484375 C 32.71875 -1.359375 32.75 -1.191406 32.75 -0.984375 C 32.75 -0.703125 32.664062 -0.46875 32.5 -0.28125 C 32.332031 -0.09375 32.109375 0 31.828125 0 L 22.78125 0 C 22.132812 0 21.71875 -0.328125 21.53125 -0.984375 L 17.140625 -13 C 17.046875 -13.25 16.890625 -13.4375 16.671875 -13.5625 C 16.460938 -13.6875 16.140625 -13.75 15.703125 -13.75 L 13.5625 -13.75 C 13.375 -13.75 13.234375 -13.6875 13.140625 -13.5625 C 13.046875 -13.4375 13 -13.328125 13 -13.234375 L 13 -1.34375 C 13 -0.851562 12.875 -0.503906 12.625 -0.296875 C 12.375 -0.0976562 11.988281 0 11.46875 0 L 3.640625 0 C 3.171875 0 2.847656 -0.09375 2.671875 -0.28125 C 2.503906 -0.46875 2.421875 -0.765625 2.421875 -1.171875 L 2.421875 -33.5 C 2.421875 -34.21875 2.71875 -34.578125 3.3125 -34.578125 L 18.875 -34.578125 C 23.375 -34.578125 26.863281 -33.710938 29.34375 -31.984375 C 31.832031 -30.265625 33.078125 -27.832031 33.078125 -24.6875 C 33.078125 -22.550781 32.507812 -20.644531 31.375 -18.96875 C 30.25 -17.289062 28.785156 -16.109375 26.984375 -15.421875 C 26.796875 -15.328125 26.703125 -15.171875 26.703125 -14.953125 C 26.703125 -14.859375 26.734375 -14.71875 26.796875 -14.53125 Z M 18.453125 -20.6875 C 19.628906 -20.6875 20.535156 -20.988281 21.171875 -21.59375 C 21.804688 -22.195312 22.125 -23.015625 22.125 -24.046875 C 22.125 -25.191406 21.742188 -26.082031 20.984375 -26.71875 C 20.222656 -27.351562 19.285156 -27.671875 18.171875 -27.671875 L 14.078125 -27.671875 C 13.671875 -27.671875 13.390625 -27.597656 13.234375 -27.453125 C 13.078125 -27.316406 13 -27.082031 13 -26.75 L 13 -21.671875 C 13 -21.328125 13.050781 -21.078125 13.15625 -20.921875 C 13.269531 -20.765625 13.484375 -20.6875 13.796875 -20.6875 Z M 18.453125 -20.6875 "/></g></g></g><g fill="#810bcf" fill-opacity="1"><g transform="translate(186.157446, 328.46996)"><g><path d="M 11.28125 -1.34375 C 11.28125 -0.851562 11.160156 -0.503906 10.921875 -0.296875 C 10.691406 -0.0976562 10.296875 0 9.734375 0 L 2.75 0 C 2.28125 0 1.953125 -0.09375 1.765625 -0.28125 C 1.578125 -0.46875 1.484375 -0.765625 1.484375 -1.171875 L 1.484375 -8.34375 C 1.484375 -8.6875 1.5625 -8.941406 1.71875 -9.109375 C 1.875 -9.273438 2.09375 -9.359375 2.375 -9.359375 L 10.4375 -9.359375 C 11 -9.359375 11.28125 -9.050781 11.28125 -8.4375 Z M 11.28125 -1.34375 "/></g></g></g><g fill="#810bcf" fill-opacity="1"><g transform="translate(199.158426, 328.46996)"><g><path d="M 32.9375 -34.578125 C 33.21875 -34.578125 33.441406 -34.488281 33.609375 -34.3125 C 33.785156 -34.144531 33.875 -33.921875 33.875 -33.640625 C 33.875 -33.453125 33.859375 -33.3125 33.828125 -33.21875 L 23.015625 -1.171875 C 22.796875 -0.390625 22.222656 0 21.296875 0 L 13.75 0 C 12.8125 0 12.234375 -0.390625 12.015625 -1.171875 L 1.21875 -33.21875 C 1.15625 -33.40625 1.125 -33.546875 1.125 -33.640625 C 1.125 -33.921875 1.210938 -34.144531 1.390625 -34.3125 C 1.578125 -34.488281 1.8125 -34.578125 2.09375 -34.578125 L 11.09375 -34.578125 C 11.675781 -34.578125 12.0625 -34.25 12.25 -33.59375 L 18.5 -13.140625 C 18.5625 -12.921875 18.640625 -12.8125 18.734375 -12.8125 C 18.796875 -12.8125 18.875 -12.9375 18.96875 -13.1875 L 24.78125 -33.59375 C 24.84375 -33.90625 24.988281 -34.144531 25.21875 -34.3125 C 25.457031 -34.488281 25.71875 -34.578125 26 -34.578125 Z M 32.9375 -34.578125 "/></g></g></g><g fill="#810bcf" fill-opacity="1"><g transform="translate(234.153895, 328.46996)"><g><path d="M 11.28125 -1.34375 C 11.28125 -0.851562 11.160156 -0.503906 10.921875 -0.296875 C 10.691406 -0.0976562 10.296875 0 9.734375 0 L 2.75 0 C 2.28125 0 1.953125 -0.09375 1.765625 -0.28125 C 1.578125 -0.46875 1.484375 -0.765625 1.484375 -1.171875 L 1.484375 -8.34375 C 1.484375 -8.6875 1.5625 -8.941406 1.71875 -9.109375 C 1.875 -9.273438 2.09375 -9.359375 2.375 -9.359375 L 10.4375 -9.359375 C 11 -9.359375 11.28125 -9.050781 11.28125 -8.4375 Z M 11.28125 -1.34375 "/></g></g></g><g fill="#810bcf" fill-opacity="1"><g transform="translate(247.154875, 328.46996)"><g><path d="M 12.15625 -34.578125 C 12.71875 -34.578125 13 -34.25 13 -33.59375 L 13 -1.34375 C 13 -0.851562 12.875 -0.503906 12.625 -0.296875 C 12.375 -0.0976562 11.988281 0 11.46875 0 L 3.6875 0 C 3.21875 0 2.890625 -0.09375 2.703125 -0.28125 C 2.515625 -0.46875 2.421875 -0.765625 2.421875 -1.171875 L 2.421875 -33.5 C 2.421875 -33.84375 2.5 -34.109375 2.65625 -34.296875 C 2.8125 -34.484375 3.03125 -34.578125 3.3125 -34.578125 Z M 12.15625 -34.578125 "/></g></g></g><g fill="#810bcf" fill-opacity="1"><g transform="translate(262.578991, 328.46996)"><g><path d="M 11.28125 -1.34375 C 11.28125 -0.851562 11.160156 -0.503906 10.921875 -0.296875 C 10.691406 -0.0976562 10.296875 0 9.734375 0 L 2.75 0 C 2.28125 0 1.953125 -0.09375 1.765625 -0.28125 C 1.578125 -0.46875 1.484375 -0.765625 1.484375 -1.171875 L 1.484375 -8.34375 C 1.484375 -8.6875 1.5625 -8.941406 1.71875 -9.109375 C 1.875 -9.273438 2.09375 -9.359375 2.375 -9.359375 L 10.4375 -9.359375 C 11 -9.359375 11.28125 -9.050781 11.28125 -8.4375 Z M 11.28125 -1.34375 "/></g></g></g><g fill="#810bcf" fill-opacity="1"><g transform="translate(275.57997, 328.46996)"><g><path d="M 23.015625 -25.296875 C 22.273438 -26.109375 21.476562 -26.726562 20.625 -27.15625 C 19.769531 -27.59375 18.53125 -27.8125 16.90625 -27.8125 C 15.289062 -27.8125 14.09375 -27.578125 13.3125 -27.109375 C 12.539062 -26.648438 12.15625 -26.09375 12.15625 -25.4375 C 12.15625 -24.320312 13.148438 -23.53125 15.140625 -23.0625 L 22.875 -21.0625 C 25.707031 -20.34375 27.835938 -19.085938 29.265625 -17.296875 C 30.691406 -15.515625 31.40625 -13.382812 31.40625 -10.90625 C 31.40625 -8.601562 30.796875 -6.597656 29.578125 -4.890625 C 28.367188 -3.179688 26.640625 -1.859375 24.390625 -0.921875 C 22.140625 0.00390625 19.507812 0.46875 16.5 0.46875 C 13.082031 0.46875 9.96875 -0.0976562 7.15625 -1.234375 C 4.34375 -2.367188 2.390625 -3.851562 1.296875 -5.6875 C 1.148438 -6 1.078125 -6.234375 1.078125 -6.390625 C 1.078125 -6.691406 1.242188 -6.96875 1.578125 -7.21875 L 6.390625 -10.53125 C 6.722656 -10.75 7.03125 -10.859375 7.3125 -10.859375 C 7.65625 -10.859375 7.9375 -10.71875 8.15625 -10.4375 C 9.207031 -9.070312 10.273438 -8.109375 11.359375 -7.546875 C 12.453125 -6.984375 13.898438 -6.703125 15.703125 -6.703125 C 17.441406 -6.703125 18.816406 -6.941406 19.828125 -7.421875 C 20.835938 -7.910156 21.34375 -8.570312 21.34375 -9.40625 C 21.34375 -10 21.09375 -10.515625 20.59375 -10.953125 C 20.09375 -11.390625 19.363281 -11.710938 18.40625 -11.921875 L 11.328125 -13.65625 C 8.523438 -14.332031 6.300781 -15.609375 4.65625 -17.484375 C 3.007812 -19.367188 2.1875 -21.539062 2.1875 -24 C 2.1875 -26.019531 2.773438 -27.875 3.953125 -29.5625 C 5.140625 -31.257812 6.816406 -32.59375 8.984375 -33.5625 C 11.160156 -34.539062 13.679688 -35.03125 16.546875 -35.03125 C 19.335938 -35.03125 21.925781 -34.570312 24.3125 -33.65625 C 26.707031 -32.75 28.4375 -31.53125 29.5 -30 C 29.707031 -29.726562 29.8125 -29.46875 29.8125 -29.21875 C 29.8125 -29 29.707031 -28.796875 29.5 -28.609375 L 24.421875 -24.921875 C 24.265625 -24.796875 24.09375 -24.734375 23.90625 -24.734375 C 23.6875 -24.734375 23.390625 -24.921875 23.015625 -25.296875 Z M 23.015625 -25.296875 "/></g></g></g></svg>