<svg xmlns="http://www.w3.org/2000/svg" xmlns:xlink="http://www.w3.org/1999/xlink" width="201" zoomAndPan="magnify" viewBox="0 0 150.75 38.249999" height="51" preserveAspectRatio="xMidYMid meet" version="1.0"><defs><clipPath id="id1"><path d="M 31 5.660156 L 56 5.660156 L 56 30.710938 L 31 30.710938 Z M 31 5.660156 " clip-rule="nonzero"/></clipPath><clipPath id="id2"><path d="M 5.085938 5.660156 L 31 5.660156 L 31 30.710938 L 5.085938 30.710938 Z M 5.085938 5.660156 " clip-rule="nonzero"/></clipPath><clipPath id="id3"><path d="M 75 5.660156 L 101 5.660156 L 101 30.710938 L 75 30.710938 Z M 75 5.660156 " clip-rule="nonzero"/></clipPath><clipPath id="id4"><path d="M 121 5.660156 L 145.8125 5.660156 L 145.8125 30.710938 L 121 30.710938 Z M 121 5.660156 " clip-rule="nonzero"/></clipPath></defs><g clip-path="url(#id1)"><path fill="#810bcf" d="M 52.03125 9.097656 C 51.214844 8.3125 50.3125 7.652344 49.316406 7.117188 C 48.320312 6.582031 47.273438 6.191406 46.175781 5.945312 C 45.074219 5.703125 43.960938 5.609375 42.835938 5.675781 C 41.710938 5.738281 40.617188 5.953125 39.550781 6.320312 C 38.484375 6.6875 37.484375 7.191406 36.554688 7.835938 C 35.625 8.476562 34.796875 9.234375 34.070312 10.109375 C 33.347656 10.980469 32.75 11.933594 32.28125 12.972656 C 31.816406 14.011719 31.496094 15.09375 31.320312 16.21875 C 31.285156 16.449219 31.277344 16.683594 31.292969 16.914062 C 31.308594 17.148438 31.351562 17.375 31.421875 17.597656 C 31.488281 17.824219 31.582031 18.035156 31.695312 18.238281 C 31.8125 18.441406 31.949219 18.625 32.105469 18.796875 C 32.261719 18.96875 32.4375 19.121094 32.628906 19.25 C 32.820312 19.382812 33.019531 19.488281 33.238281 19.574219 C 33.453125 19.660156 33.671875 19.71875 33.902344 19.75 C 34.128906 19.785156 34.359375 19.792969 34.589844 19.773438 L 34.625 19.773438 C 35.796875 19.667969 36.890625 19.304688 37.898438 18.691406 C 38.90625 18.074219 39.734375 17.265625 40.375 16.269531 C 40.441406 16.164062 40.46875 16.054688 40.457031 15.933594 C 40.441406 15.8125 40.394531 15.707031 40.308594 15.621094 L 38.171875 13.457031 C 38.023438 13.292969 37.988281 13.105469 38.074219 12.898438 C 38.15625 12.691406 38.308594 12.585938 38.53125 12.578125 L 48.023438 12.578125 C 48.15625 12.578125 48.285156 12.605469 48.410156 12.65625 C 48.535156 12.707031 48.644531 12.78125 48.738281 12.878906 C 48.835938 12.976562 48.90625 13.085938 48.957031 13.210938 C 49.011719 13.339844 49.035156 13.46875 49.035156 13.605469 L 49.035156 23.214844 C 49.027344 23.4375 48.921875 23.59375 48.71875 23.679688 C 48.515625 23.761719 48.332031 23.730469 48.167969 23.578125 L 45.8125 21.191406 C 45.710938 21.089844 45.585938 21.039062 45.441406 21.042969 C 45.296875 21.050781 45.175781 21.105469 45.078125 21.210938 C 44.410156 21.96875 43.65625 22.628906 42.820312 23.191406 C 41.980469 23.75 41.085938 24.195312 40.136719 24.523438 C 39.1875 24.851562 38.210938 25.050781 37.210938 25.121094 C 36.207031 25.195312 35.214844 25.136719 34.226562 24.949219 C 34 24.910156 33.828125 24.988281 33.707031 25.1875 C 33.585938 25.382812 33.589844 25.574219 33.722656 25.761719 C 33.980469 26.105469 34.253906 26.433594 34.546875 26.75 C 34.835938 27.0625 35.144531 27.359375 35.464844 27.644531 C 35.789062 27.925781 36.121094 28.191406 36.472656 28.4375 C 36.820312 28.683594 37.179688 28.914062 37.554688 29.121094 C 37.925781 29.332031 38.308594 29.519531 38.699219 29.691406 C 39.089844 29.859375 39.488281 30.007812 39.894531 30.136719 C 40.300781 30.261719 40.714844 30.367188 41.132812 30.453125 C 41.546875 30.539062 41.96875 30.601562 42.394531 30.640625 C 42.816406 30.679688 43.242188 30.699219 43.667969 30.695312 C 44.09375 30.691406 44.515625 30.664062 44.941406 30.617188 C 45.363281 30.566406 45.78125 30.496094 46.199219 30.40625 C 46.613281 30.3125 47.023438 30.199219 47.425781 30.0625 C 47.832031 29.929688 48.226562 29.773438 48.617188 29.597656 C 49.003906 29.417969 49.382812 29.222656 49.75 29.007812 C 50.117188 28.789062 50.476562 28.554688 50.820312 28.300781 C 51.164062 28.050781 51.492188 27.777344 51.808594 27.488281 C 52.125 27.203125 52.429688 26.898438 52.714844 26.578125 C 53 26.257812 53.265625 25.925781 53.519531 25.578125 C 53.769531 25.230469 54.003906 24.871094 54.21875 24.496094 C 54.433594 24.125 54.628906 23.742188 54.804688 23.351562 C 54.980469 22.957031 55.132812 22.558594 55.269531 22.148438 C 55.402344 21.738281 55.515625 21.324219 55.609375 20.90625 C 55.703125 20.484375 55.773438 20.058594 55.820312 19.632812 C 55.871094 19.203125 55.898438 18.773438 55.902344 18.34375 C 55.910156 17.914062 55.890625 17.484375 55.851562 17.054688 C 55.816406 16.625 55.753906 16.199219 55.671875 15.773438 C 55.589844 15.351562 55.484375 14.933594 55.363281 14.523438 C 55.238281 14.109375 55.089844 13.707031 54.925781 13.308594 C 54.757812 12.914062 54.574219 12.527344 54.367188 12.148438 C 54.160156 11.773438 53.9375 11.40625 53.695312 11.050781 C 53.453125 10.699219 53.191406 10.359375 52.914062 10.03125 C 52.636719 9.703125 52.34375 9.394531 52.03125 9.097656 Z M 52.03125 9.097656 " fill-opacity="1" fill-rule="nonzero"/></g><g clip-path="url(#id2)"><path fill="#810bcf" d="M 30.671875 19.570312 L 30.671875 29.179688 C 30.667969 29.402344 30.5625 29.558594 30.355469 29.644531 C 30.148438 29.730469 29.964844 29.699219 29.804688 29.542969 L 27.433594 27.140625 C 27.335938 27.046875 27.21875 27 27.082031 27 C 26.945312 27 26.824219 27.046875 26.726562 27.140625 C 22.230469 31.515625 14.71875 31.859375 9.875 27.835938 C 5.015625 23.996094 3.675781 16.894531 6.949219 11.578125 C 11.675781 3.808594 22.851562 3.75 27.765625 11.046875 C 27.84375 11.167969 27.871094 11.304688 27.835938 11.449219 C 27.800781 11.597656 27.722656 11.707031 27.59375 11.78125 L 23.804688 13.996094 C 23.695312 14.058594 23.582031 14.078125 23.460938 14.054688 C 23.335938 14.03125 23.234375 13.972656 23.15625 13.875 C 22.570312 13.160156 21.867188 12.582031 21.054688 12.148438 C 20.238281 11.710938 19.375 11.449219 18.457031 11.359375 C 14.136719 10.949219 10.421875 14.691406 11.332031 19.082031 C 12.402344 23.972656 18.535156 25.757812 22.003906 22.363281 C 22.101562 22.261719 22.148438 22.140625 22.148438 22 C 22.148438 21.859375 22.101562 21.738281 22.003906 21.636719 L 19.808594 19.421875 C 19.65625 19.257812 19.621094 19.074219 19.707031 18.863281 C 19.789062 18.65625 19.945312 18.550781 20.167969 18.542969 L 29.65625 18.542969 C 29.792969 18.542969 29.921875 18.570312 30.046875 18.621094 C 30.171875 18.671875 30.28125 18.746094 30.375 18.84375 C 30.46875 18.941406 30.542969 19.050781 30.59375 19.179688 C 30.648438 19.304688 30.671875 19.433594 30.671875 19.570312 Z M 30.671875 19.570312 " fill-opacity="1" fill-rule="nonzero"/></g><path fill="#000000" d="M 62.636719 11.21875 L 55.734375 11.21875 C 55.589844 11.21875 55.46875 11.167969 55.371094 11.066406 C 55.269531 10.964844 55.21875 10.839844 55.21875 10.699219 L 55.21875 7.183594 C 55.21875 7.039062 55.269531 6.914062 55.371094 6.8125 C 55.46875 6.710938 55.589844 6.660156 55.734375 6.660156 L 75.898438 6.660156 C 76.039062 6.660156 76.160156 6.710938 76.261719 6.8125 C 76.363281 6.914062 76.414062 7.039062 76.414062 7.183594 L 76.414062 10.699219 C 76.414062 10.839844 76.363281 10.964844 76.261719 11.066406 C 76.160156 11.167969 76.039062 11.21875 75.898438 11.21875 L 68.996094 11.21875 C 68.851562 11.21875 68.730469 11.269531 68.628906 11.371094 C 68.53125 11.472656 68.480469 11.597656 68.480469 11.738281 L 68.480469 29.175781 C 68.480469 29.320312 68.429688 29.441406 68.328125 29.542969 C 68.230469 29.644531 68.109375 29.695312 67.964844 29.695312 L 63.65625 29.695312 C 63.515625 29.695312 63.390625 29.644531 63.292969 29.542969 C 63.191406 29.441406 63.140625 29.320312 63.140625 29.175781 L 63.140625 11.738281 C 63.140625 11.597656 63.09375 11.476562 62.996094 11.375 C 62.894531 11.273438 62.777344 11.222656 62.636719 11.21875 Z M 62.636719 11.21875 " fill-opacity="1" fill-rule="nonzero"/><g clip-path="url(#id3)"><path fill="#000000" d="M 88.15625 11.070312 C 88.621094 11.070312 89.078125 11.113281 89.53125 11.207031 C 89.984375 11.296875 90.421875 11.433594 90.847656 11.609375 C 91.277344 11.789062 91.679688 12.007812 92.066406 12.269531 C 92.449219 12.527344 92.804688 12.824219 93.132812 13.15625 C 93.457031 13.484375 93.75 13.84375 94.007812 14.234375 C 94.261719 14.621094 94.480469 15.035156 94.65625 15.464844 C 94.832031 15.898438 94.964844 16.34375 95.054688 16.800781 C 95.144531 17.261719 95.191406 17.722656 95.191406 18.191406 C 95.191406 18.65625 95.144531 19.121094 95.054688 19.578125 C 94.964844 20.039062 94.832031 20.484375 94.65625 20.914062 C 94.480469 21.347656 94.261719 21.757812 94.007812 22.148438 C 93.75 22.535156 93.457031 22.894531 93.132812 23.226562 C 92.804688 23.554688 92.449219 23.851562 92.066406 24.113281 C 91.679688 24.371094 91.277344 24.589844 90.847656 24.769531 C 90.421875 24.949219 89.984375 25.082031 89.53125 25.175781 C 89.078125 25.265625 88.621094 25.3125 88.15625 25.3125 C 87.695312 25.3125 87.238281 25.265625 86.785156 25.175781 C 86.332031 25.082031 85.890625 24.949219 85.464844 24.769531 C 85.039062 24.589844 84.632812 24.371094 84.25 24.113281 C 83.867188 23.851562 83.511719 23.554688 83.183594 23.226562 C 82.855469 22.894531 82.566406 22.535156 82.308594 22.148438 C 82.050781 21.757812 81.835938 21.347656 81.660156 20.914062 C 81.484375 20.484375 81.347656 20.039062 81.257812 19.578125 C 81.167969 19.121094 81.125 18.65625 81.125 18.191406 C 81.125 17.722656 81.167969 17.261719 81.257812 16.800781 C 81.347656 16.34375 81.480469 15.898438 81.660156 15.464844 C 81.835938 15.035156 82.050781 14.621094 82.308594 14.234375 C 82.566406 13.84375 82.855469 13.484375 83.183594 13.15625 C 83.511719 12.824219 83.867188 12.527344 84.25 12.269531 C 84.632812 12.007812 85.039062 11.789062 85.464844 11.609375 C 85.890625 11.433594 86.332031 11.296875 86.785156 11.207031 C 87.238281 11.113281 87.695312 11.070312 88.15625 11.070312 M 88.15625 5.664062 C 87.34375 5.664062 86.539062 5.742188 85.742188 5.902344 C 84.945312 6.0625 84.171875 6.300781 83.421875 6.617188 C 82.671875 6.929688 81.960938 7.316406 81.285156 7.773438 C 80.609375 8.230469 79.984375 8.75 79.410156 9.332031 C 78.835938 9.910156 78.320312 10.542969 77.871094 11.226562 C 77.417969 11.914062 77.039062 12.632812 76.726562 13.394531 C 76.414062 14.152344 76.179688 14.9375 76.023438 15.742188 C 75.863281 16.550781 75.785156 17.363281 75.785156 18.1875 C 75.785156 19.007812 75.863281 19.824219 76.023438 20.628906 C 76.179688 21.4375 76.414062 22.21875 76.726562 22.980469 C 77.039062 23.738281 77.417969 24.460938 77.871094 25.144531 C 78.320312 25.828125 78.832031 26.460938 79.40625 27.042969 C 79.984375 27.625 80.605469 28.144531 81.28125 28.601562 C 81.957031 29.058594 82.671875 29.445312 83.421875 29.757812 C 84.171875 30.074219 84.945312 30.3125 85.742188 30.472656 C 86.539062 30.632812 87.34375 30.710938 88.15625 30.710938 C 88.96875 30.710938 89.773438 30.632812 90.570312 30.472656 C 91.367188 30.3125 92.140625 30.074219 92.890625 29.757812 C 93.640625 29.445312 94.351562 29.058594 95.027344 28.601562 C 95.703125 28.144531 96.328125 27.625 96.902344 27.042969 C 97.476562 26.460938 97.992188 25.828125 98.441406 25.144531 C 98.894531 24.460938 99.273438 23.738281 99.585938 22.980469 C 99.894531 22.21875 100.128906 21.4375 100.289062 20.628906 C 100.449219 19.824219 100.527344 19.007812 100.527344 18.1875 C 100.527344 17.363281 100.449219 16.550781 100.289062 15.742188 C 100.132812 14.9375 99.898438 14.152344 99.585938 13.394531 C 99.277344 12.632812 98.894531 11.910156 98.441406 11.226562 C 97.992188 10.542969 97.480469 9.910156 96.90625 9.328125 C 96.332031 8.75 95.707031 8.230469 95.03125 7.773438 C 94.355469 7.316406 93.640625 6.929688 92.890625 6.613281 C 92.140625 6.300781 91.367188 6.0625 90.570312 5.902344 C 89.773438 5.742188 88.96875 5.660156 88.15625 5.660156 Z M 88.15625 5.664062 " fill-opacity="1" fill-rule="nonzero"/></g><g clip-path="url(#id4)"><path fill="#000000" d="M 133.371094 11.070312 C 133.832031 11.070312 134.289062 11.113281 134.742188 11.207031 C 135.195312 11.296875 135.636719 11.433594 136.0625 11.609375 C 136.488281 11.789062 136.894531 12.007812 137.277344 12.269531 C 137.664062 12.527344 138.019531 12.824219 138.34375 13.15625 C 138.671875 13.484375 138.964844 13.84375 139.21875 14.234375 C 139.476562 14.621094 139.691406 15.035156 139.871094 15.464844 C 140.046875 15.898438 140.179688 16.34375 140.269531 16.800781 C 140.359375 17.261719 140.40625 17.722656 140.40625 18.191406 C 140.40625 18.65625 140.359375 19.121094 140.269531 19.578125 C 140.179688 20.039062 140.046875 20.484375 139.871094 20.914062 C 139.691406 21.347656 139.476562 21.757812 139.21875 22.148438 C 138.964844 22.535156 138.671875 22.894531 138.34375 23.226562 C 138.019531 23.554688 137.664062 23.851562 137.277344 24.113281 C 136.894531 24.371094 136.488281 24.589844 136.0625 24.769531 C 135.636719 24.949219 135.195312 25.082031 134.742188 25.175781 C 134.289062 25.265625 133.832031 25.3125 133.371094 25.3125 C 132.910156 25.3125 132.453125 25.265625 132 25.175781 C 131.546875 25.082031 131.105469 24.949219 130.679688 24.769531 C 130.253906 24.589844 129.847656 24.371094 129.464844 24.113281 C 129.078125 23.851562 128.722656 23.554688 128.398438 23.226562 C 128.070312 22.894531 127.78125 22.535156 127.523438 22.148438 C 127.265625 21.757812 127.050781 21.347656 126.871094 20.914062 C 126.695312 20.484375 126.5625 20.039062 126.472656 19.578125 C 126.382812 19.121094 126.335938 18.65625 126.335938 18.191406 C 126.335938 17.722656 126.382812 17.261719 126.472656 16.800781 C 126.5625 16.34375 126.695312 15.898438 126.871094 15.464844 C 127.050781 15.035156 127.265625 14.621094 127.523438 14.234375 C 127.78125 13.84375 128.070312 13.484375 128.398438 13.15625 C 128.722656 12.824219 129.078125 12.527344 129.464844 12.269531 C 129.847656 12.007812 130.253906 11.789062 130.679688 11.609375 C 131.105469 11.433594 131.546875 11.296875 132 11.207031 C 132.453125 11.113281 132.910156 11.070312 133.371094 11.070312 M 133.371094 5.664062 C 132.558594 5.664062 131.753906 5.742188 130.957031 5.902344 C 130.160156 6.0625 129.386719 6.300781 128.636719 6.617188 C 127.886719 6.929688 127.171875 7.316406 126.5 7.773438 C 125.824219 8.230469 125.199219 8.75 124.625 9.332031 C 124.050781 9.914062 123.535156 10.542969 123.085938 11.230469 C 122.632812 11.914062 122.253906 12.632812 121.941406 13.394531 C 121.632812 14.152344 121.394531 14.9375 121.238281 15.742188 C 121.078125 16.550781 121 17.363281 121 18.1875 C 121 19.007812 121.078125 19.824219 121.238281 20.628906 C 121.394531 21.4375 121.632812 22.21875 121.941406 22.980469 C 122.253906 23.738281 122.632812 24.460938 123.085938 25.144531 C 123.535156 25.828125 124.050781 26.460938 124.625 27.042969 C 125.199219 27.625 125.824219 28.144531 126.5 28.601562 C 127.171875 29.058594 127.886719 29.445312 128.636719 29.757812 C 129.386719 30.074219 130.160156 30.3125 130.957031 30.472656 C 131.753906 30.632812 132.558594 30.710938 133.371094 30.710938 C 134.183594 30.710938 134.988281 30.632812 135.785156 30.472656 C 136.582031 30.3125 137.355469 30.074219 138.105469 29.757812 C 138.855469 29.445312 139.570312 29.058594 140.242188 28.601562 C 140.917969 28.144531 141.542969 27.625 142.117188 27.042969 C 142.691406 26.460938 143.207031 25.828125 143.65625 25.144531 C 144.109375 24.460938 144.488281 23.738281 144.800781 22.980469 C 145.109375 22.21875 145.347656 21.4375 145.503906 20.628906 C 145.664062 19.824219 145.742188 19.007812 145.742188 18.1875 C 145.742188 17.363281 145.664062 16.550781 145.503906 15.742188 C 145.347656 14.9375 145.113281 14.152344 144.800781 13.394531 C 144.488281 12.632812 144.109375 11.910156 143.65625 11.226562 C 143.207031 10.542969 142.695312 9.910156 142.121094 9.328125 C 141.546875 8.746094 140.921875 8.230469 140.246094 7.773438 C 139.570312 7.316406 138.855469 6.929688 138.105469 6.613281 C 137.355469 6.300781 136.582031 6.0625 135.785156 5.902344 C 134.988281 5.742188 134.183594 5.660156 133.371094 5.660156 Z M 133.371094 5.664062 " fill-opacity="1" fill-rule="nonzero"/></g><path fill="#000000" d="M 123.144531 28.847656 L 113.964844 16.988281 C 113.886719 16.886719 113.847656 16.769531 113.851562 16.644531 C 113.855469 16.515625 113.898438 16.402344 113.984375 16.304688 L 121.621094 7.550781 C 121.773438 7.378906 121.800781 7.191406 121.707031 6.980469 C 121.613281 6.769531 121.457031 6.667969 121.226562 6.667969 L 115.945312 6.667969 C 115.789062 6.667969 115.65625 6.722656 115.550781 6.839844 L 108.144531 15.398438 C 107.984375 15.585938 107.792969 15.632812 107.5625 15.546875 C 107.335938 15.464844 107.222656 15.296875 107.222656 15.050781 L 107.222656 7.199219 C 107.222656 7.050781 107.171875 6.925781 107.070312 6.824219 C 106.964844 6.71875 106.84375 6.667969 106.699219 6.667969 L 102.410156 6.667969 C 102.265625 6.667969 102.140625 6.71875 102.039062 6.824219 C 101.933594 6.925781 101.882812 7.050781 101.882812 7.199219 L 101.882812 29.175781 C 101.882812 29.320312 101.933594 29.445312 102.039062 29.550781 C 102.140625 29.652344 102.265625 29.707031 102.410156 29.707031 L 106.699219 29.707031 C 106.84375 29.707031 106.964844 29.652344 107.070312 29.550781 C 107.171875 29.445312 107.222656 29.320312 107.222656 29.175781 L 107.222656 24.5625 C 107.222656 24.25 107.324219 23.976562 107.53125 23.742188 L 109.761719 21.183594 C 109.871094 21.058594 110.007812 21 110.171875 21.003906 C 110.335938 21.007812 110.46875 21.074219 110.570312 21.207031 L 116.980469 29.503906 C 117.089844 29.640625 117.226562 29.707031 117.398438 29.707031 L 122.714844 29.707031 C 122.9375 29.710938 123.097656 29.613281 123.199219 29.414062 C 123.300781 29.210938 123.28125 29.023438 123.144531 28.847656 Z M 123.144531 28.847656 " fill-opacity="1" fill-rule="nonzero"/></svg>