<svg xmlns="http://www.w3.org/2000/svg" xmlns:xlink="http://www.w3.org/1999/xlink" width="500" zoomAndPan="magnify" viewBox="0 0 375 374.999991" height="500" preserveAspectRatio="xMidYMid meet" version="1.0"><defs><clipPath id="id1"><path d="M 140 161.125 L 167 161.125 L 167 187.375 L 140 187.375 Z M 140 161.125 " clip-rule="nonzero"/></clipPath><clipPath id="id2"><path d="M 112.5 161.125 L 140 161.125 L 140 187.375 L 112.5 187.375 Z M 112.5 161.125 " clip-rule="nonzero"/></clipPath><clipPath id="id3"><path d="M 187 161.125 L 215 161.125 L 215 187.375 L 187 187.375 Z M 187 161.125 " clip-rule="nonzero"/></clipPath><clipPath id="id4"><path d="M 236 161.125 L 262.5 161.125 L 262.5 187.375 L 236 187.375 Z M 236 161.125 " clip-rule="nonzero"/></clipPath></defs><rect x="-37.5" width="450" fill="#ffffff" y="-37.499999" height="449.999989" fill-opacity="1"/><rect x="-37.5" width="450" fill="#ffffff" y="-37.499999" height="449.999989" fill-opacity="1"/><rect x="-37.5" width="450" fill="#ffffff" y="-37.499999" height="449.999989" fill-opacity="1"/><rect x="-37.5" width="450" fill="#ffffff" y="-37.499999" height="449.999989" fill-opacity="1"/><g clip-path="url(#id1)"><path fill="#ffffff" d="M 162.546875 164.726562 C 161.679688 163.90625 160.714844 163.210938 159.652344 162.652344 C 158.59375 162.089844 157.476562 161.683594 156.304688 161.425781 C 155.132812 161.167969 153.945312 161.074219 152.75 161.140625 C 151.550781 161.207031 150.382812 161.433594 149.246094 161.816406 C 148.109375 162.199219 147.046875 162.730469 146.054688 163.402344 C 145.0625 164.078125 144.179688 164.871094 143.40625 165.785156 C 142.632812 166.699219 142 167.699219 141.5 168.789062 C 141.003906 169.875 140.660156 171.007812 140.476562 172.191406 C 140.4375 172.433594 140.429688 172.675781 140.445312 172.917969 C 140.464844 173.164062 140.511719 173.402344 140.582031 173.636719 C 140.65625 173.871094 140.753906 174.09375 140.875 174.304688 C 141 174.515625 141.144531 174.710938 141.3125 174.890625 C 141.480469 175.070312 141.664062 175.230469 141.867188 175.367188 C 142.074219 175.503906 142.289062 175.617188 142.519531 175.707031 C 142.746094 175.792969 142.984375 175.855469 143.226562 175.890625 C 143.46875 175.925781 143.714844 175.933594 143.960938 175.914062 L 143.996094 175.914062 C 145.246094 175.804688 146.410156 175.425781 147.484375 174.78125 C 148.5625 174.136719 149.441406 173.289062 150.125 172.242188 C 150.195312 172.132812 150.222656 172.015625 150.210938 171.890625 C 150.199219 171.761719 150.144531 171.652344 150.054688 171.5625 L 147.777344 169.292969 C 147.617188 169.125 147.582031 168.929688 147.671875 168.710938 C 147.761719 168.496094 147.925781 168.382812 148.160156 168.375 L 158.273438 168.375 C 158.417969 168.375 158.554688 168.402344 158.6875 168.457031 C 158.820312 168.511719 158.9375 168.589844 159.039062 168.691406 C 159.140625 168.792969 159.21875 168.90625 159.273438 169.039062 C 159.328125 169.171875 159.355469 169.308594 159.355469 169.449219 L 159.355469 179.519531 C 159.347656 179.753906 159.234375 179.917969 159.015625 180.007812 C 158.796875 180.09375 158.601562 180.058594 158.429688 179.898438 L 155.921875 177.398438 C 155.808594 177.292969 155.675781 177.242188 155.523438 177.246094 C 155.371094 177.25 155.242188 177.308594 155.136719 177.421875 C 154.421875 178.214844 153.621094 178.90625 152.730469 179.496094 C 151.835938 180.082031 150.882812 180.546875 149.871094 180.890625 C 148.859375 181.234375 147.820312 181.445312 146.75 181.519531 C 145.683594 181.59375 144.625 181.535156 143.574219 181.335938 C 143.332031 181.296875 143.148438 181.382812 143.019531 181.585938 C 142.890625 181.792969 142.894531 181.992188 143.035156 182.191406 C 143.3125 182.550781 143.601562 182.894531 143.914062 183.222656 C 144.222656 183.554688 144.550781 183.867188 144.894531 184.160156 C 145.238281 184.457031 145.59375 184.734375 145.964844 184.992188 C 146.335938 185.25 146.722656 185.492188 147.117188 185.710938 C 147.515625 185.929688 147.921875 186.128906 148.339844 186.304688 C 148.753906 186.484375 149.179688 186.636719 149.613281 186.773438 C 150.046875 186.90625 150.484375 187.015625 150.929688 187.105469 C 151.375 187.195312 151.824219 187.257812 152.273438 187.300781 C 152.726562 187.34375 153.179688 187.363281 153.632812 187.359375 C 154.085938 187.355469 154.539062 187.328125 154.988281 187.277344 C 155.441406 187.226562 155.886719 187.152344 156.328125 187.054688 C 156.773438 186.957031 157.210938 186.839844 157.640625 186.699219 C 158.070312 186.554688 158.492188 186.394531 158.90625 186.207031 C 159.320312 186.023438 159.722656 185.816406 160.117188 185.589844 C 160.507812 185.363281 160.886719 185.117188 161.253906 184.851562 C 161.621094 184.585938 161.972656 184.300781 162.308594 184 C 162.648438 183.699219 162.96875 183.378906 163.273438 183.046875 C 163.578125 182.710938 163.863281 182.359375 164.132812 181.996094 C 164.398438 181.632812 164.648438 181.253906 164.875 180.863281 C 165.105469 180.476562 165.3125 180.074219 165.5 179.664062 C 165.6875 179.253906 165.851562 178.832031 165.996094 178.402344 C 166.140625 177.976562 166.261719 177.539062 166.359375 177.101562 C 166.457031 176.660156 166.53125 176.214844 166.585938 175.765625 C 166.636719 175.316406 166.667969 174.867188 166.671875 174.417969 C 166.679688 173.964844 166.660156 173.515625 166.617188 173.0625 C 166.578125 172.613281 166.511719 172.167969 166.425781 171.726562 C 166.339844 171.28125 166.226562 170.84375 166.09375 170.414062 C 165.960938 169.980469 165.804688 169.558594 165.628906 169.140625 C 165.453125 168.726562 165.253906 168.320312 165.035156 167.925781 C 164.816406 167.53125 164.578125 167.148438 164.320312 166.777344 C 164.058594 166.40625 163.78125 166.046875 163.484375 165.707031 C 163.191406 165.363281 162.878906 165.039062 162.546875 164.726562 Z M 162.546875 164.726562 " fill-opacity="1" fill-rule="nonzero"/></g><g clip-path="url(#id2)"><path fill="#ffffff" d="M 139.785156 175.703125 L 139.785156 185.769531 C 139.78125 186.003906 139.667969 186.167969 139.449219 186.257812 C 139.230469 186.347656 139.03125 186.3125 138.859375 186.152344 L 136.335938 183.636719 C 136.230469 183.535156 136.105469 183.484375 135.957031 183.484375 C 135.8125 183.484375 135.6875 183.535156 135.582031 183.636719 C 130.789062 188.21875 122.785156 188.578125 117.625 184.363281 C 112.445312 180.339844 111.015625 172.898438 114.507812 167.328125 C 119.539062 159.1875 131.453125 159.125 136.6875 166.769531 C 136.773438 166.898438 136.796875 167.039062 136.761719 167.195312 C 136.726562 167.347656 136.640625 167.460938 136.503906 167.539062 L 132.46875 169.863281 C 132.351562 169.925781 132.230469 169.949219 132.097656 169.921875 C 131.96875 169.898438 131.859375 169.835938 131.777344 169.734375 C 131.148438 168.984375 130.402344 168.378906 129.535156 167.921875 C 128.667969 167.464844 127.746094 167.191406 126.769531 167.101562 C 122.167969 166.671875 118.207031 170.589844 119.175781 175.191406 C 120.316406 180.316406 126.851562 182.1875 130.546875 178.628906 C 130.652344 178.523438 130.703125 178.394531 130.703125 178.25 C 130.703125 178.101562 130.652344 177.972656 130.546875 177.867188 L 128.207031 175.546875 C 128.046875 175.375 128.007812 175.179688 128.101562 174.960938 C 128.191406 174.746094 128.355469 174.632812 128.589844 174.625 L 138.703125 174.625 C 138.847656 174.625 138.984375 174.652344 139.117188 174.707031 C 139.25 174.761719 139.367188 174.839844 139.46875 174.941406 C 139.570312 175.042969 139.648438 175.160156 139.703125 175.289062 C 139.757812 175.421875 139.785156 175.558594 139.785156 175.703125 Z M 139.785156 175.703125 " fill-opacity="1" fill-rule="nonzero"/></g><path fill="#ffffff" d="M 173.847656 166.949219 L 166.492188 166.949219 C 166.339844 166.949219 166.210938 166.898438 166.101562 166.789062 C 165.996094 166.683594 165.941406 166.554688 165.941406 166.40625 L 165.941406 162.71875 C 165.941406 162.570312 165.996094 162.441406 166.101562 162.335938 C 166.210938 162.226562 166.339844 162.175781 166.492188 162.175781 L 187.980469 162.175781 C 188.128906 162.175781 188.257812 162.226562 188.367188 162.335938 C 188.472656 162.441406 188.527344 162.570312 188.527344 162.71875 L 188.527344 166.40625 C 188.527344 166.554688 188.472656 166.683594 188.367188 166.789062 C 188.257812 166.898438 188.128906 166.949219 187.980469 166.949219 L 180.621094 166.949219 C 180.472656 166.949219 180.34375 167.003906 180.234375 167.109375 C 180.128906 167.21875 180.074219 167.34375 180.074219 167.496094 L 180.074219 185.765625 C 180.074219 185.917969 180.019531 186.046875 179.914062 186.152344 C 179.804688 186.257812 179.675781 186.3125 179.527344 186.3125 L 174.933594 186.3125 C 174.78125 186.3125 174.652344 186.257812 174.546875 186.152344 C 174.4375 186.046875 174.386719 185.917969 174.386719 185.765625 L 174.386719 167.496094 C 174.386719 167.347656 174.332031 167.21875 174.226562 167.113281 C 174.125 167.007812 173.996094 166.953125 173.847656 166.949219 Z M 173.847656 166.949219 " fill-opacity="1" fill-rule="nonzero"/><g clip-path="url(#id3)"><path fill="#ffffff" d="M 201.042969 166.792969 C 201.535156 166.792969 202.023438 166.839844 202.503906 166.9375 C 202.988281 167.03125 203.457031 167.175781 203.910156 167.363281 C 204.367188 167.550781 204.796875 167.777344 205.207031 168.050781 C 205.617188 168.324219 205.996094 168.632812 206.34375 168.980469 C 206.691406 169.324219 207 169.703125 207.273438 170.109375 C 207.546875 170.519531 207.777344 170.949219 207.96875 171.398438 C 208.15625 171.851562 208.296875 172.320312 208.394531 172.800781 C 208.488281 173.28125 208.539062 173.765625 208.539062 174.257812 C 208.539062 174.746094 208.488281 175.230469 208.394531 175.710938 C 208.296875 176.191406 208.15625 176.660156 207.96875 177.113281 C 207.777344 177.5625 207.546875 177.996094 207.273438 178.402344 C 207 178.808594 206.691406 179.1875 206.34375 179.53125 C 205.996094 179.878906 205.617188 180.1875 205.207031 180.460938 C 204.796875 180.734375 204.367188 180.960938 203.910156 181.148438 C 203.457031 181.335938 202.988281 181.480469 202.503906 181.574219 C 202.023438 181.671875 201.535156 181.71875 201.042969 181.71875 C 200.550781 181.71875 200.0625 181.671875 199.582031 181.574219 C 199.097656 181.480469 198.628906 181.335938 198.175781 181.148438 C 197.71875 180.960938 197.289062 180.734375 196.878906 180.460938 C 196.46875 180.1875 196.089844 179.878906 195.742188 179.53125 C 195.394531 179.1875 195.085938 178.808594 194.8125 178.402344 C 194.539062 177.996094 194.304688 177.5625 194.117188 177.113281 C 193.929688 176.660156 193.789062 176.191406 193.691406 175.710938 C 193.59375 175.230469 193.546875 174.746094 193.546875 174.257812 C 193.546875 173.765625 193.59375 173.28125 193.691406 172.800781 C 193.789062 172.320312 193.929688 171.851562 194.117188 171.398438 C 194.304688 170.949219 194.539062 170.519531 194.8125 170.109375 C 195.085938 169.703125 195.394531 169.324219 195.742188 168.980469 C 196.089844 168.632812 196.46875 168.324219 196.878906 168.050781 C 197.289062 167.777344 197.71875 167.550781 198.175781 167.363281 C 198.628906 167.175781 199.097656 167.03125 199.582031 166.9375 C 200.0625 166.839844 200.550781 166.792969 201.042969 166.792969 M 201.042969 161.128906 C 200.175781 161.128906 199.320312 161.210938 198.46875 161.378906 C 197.621094 161.546875 196.796875 161.796875 195.996094 162.128906 C 195.199219 162.457031 194.4375 162.859375 193.71875 163.339844 C 193 163.820312 192.332031 164.363281 191.71875 164.972656 C 191.109375 165.582031 190.5625 166.246094 190.082031 166.960938 C 189.597656 167.675781 189.191406 168.433594 188.863281 169.230469 C 188.53125 170.027344 188.28125 170.847656 188.113281 171.691406 C 187.941406 172.535156 187.859375 173.390625 187.859375 174.253906 C 187.859375 175.113281 187.941406 175.96875 188.113281 176.8125 C 188.28125 177.65625 188.53125 178.476562 188.863281 179.273438 C 189.191406 180.070312 189.597656 180.828125 190.078125 181.542969 C 190.5625 182.261719 191.105469 182.921875 191.71875 183.53125 C 192.332031 184.140625 192.996094 184.6875 193.71875 185.164062 C 194.4375 185.644531 195.195312 186.046875 195.996094 186.378906 C 196.796875 186.707031 197.621094 186.957031 198.46875 187.125 C 199.316406 187.292969 200.175781 187.375 201.039062 187.375 C 201.90625 187.375 202.765625 187.292969 203.613281 187.125 C 204.460938 186.957031 205.285156 186.707031 206.085938 186.378906 C 206.886719 186.046875 207.644531 185.644531 208.363281 185.164062 C 209.085938 184.6875 209.75 184.140625 210.363281 183.53125 C 210.972656 182.921875 211.519531 182.261719 212.003906 181.542969 C 212.484375 180.828125 212.890625 180.070312 213.21875 179.273438 C 213.550781 178.480469 213.800781 177.65625 213.96875 176.8125 C 214.140625 175.96875 214.222656 175.113281 214.222656 174.253906 C 214.222656 173.390625 214.140625 172.535156 213.972656 171.691406 C 213.800781 170.847656 213.550781 170.027344 213.222656 169.230469 C 212.890625 168.433594 212.484375 167.675781 212.003906 166.960938 C 211.523438 166.242188 210.976562 165.582031 210.363281 164.972656 C 209.753906 164.363281 209.085938 163.816406 208.367188 163.339844 C 207.648438 162.859375 206.886719 162.457031 206.085938 162.125 C 205.289062 161.796875 204.464844 161.546875 203.613281 161.378906 C 202.765625 161.210938 201.910156 161.125 201.042969 161.125 Z M 201.042969 161.128906 " fill-opacity="1" fill-rule="nonzero"/></g><g clip-path="url(#id4)"><path fill="#ffffff" d="M 249.222656 166.792969 C 249.714844 166.792969 250.203125 166.839844 250.6875 166.9375 C 251.167969 167.03125 251.636719 167.175781 252.089844 167.363281 C 252.546875 167.550781 252.976562 167.777344 253.386719 168.050781 C 253.796875 168.324219 254.175781 168.632812 254.523438 168.980469 C 254.871094 169.324219 255.183594 169.703125 255.457031 170.109375 C 255.730469 170.519531 255.960938 170.949219 256.148438 171.398438 C 256.335938 171.851562 256.480469 172.320312 256.574219 172.800781 C 256.671875 173.28125 256.71875 173.765625 256.71875 174.257812 C 256.71875 174.746094 256.671875 175.230469 256.574219 175.710938 C 256.480469 176.191406 256.335938 176.660156 256.148438 177.113281 C 255.960938 177.5625 255.730469 177.996094 255.457031 178.402344 C 255.183594 178.808594 254.871094 179.1875 254.523438 179.53125 C 254.175781 179.878906 253.796875 180.1875 253.386719 180.460938 C 252.976562 180.734375 252.546875 180.960938 252.089844 181.148438 C 251.636719 181.335938 251.167969 181.480469 250.6875 181.574219 C 250.203125 181.671875 249.714844 181.71875 249.222656 181.71875 C 248.730469 181.71875 248.242188 181.671875 247.761719 181.574219 C 247.277344 181.480469 246.808594 181.335938 246.355469 181.148438 C 245.898438 180.960938 245.46875 180.734375 245.058594 180.460938 C 244.648438 180.1875 244.269531 179.878906 243.921875 179.53125 C 243.574219 179.1875 243.265625 178.808594 242.992188 178.402344 C 242.71875 177.996094 242.488281 177.5625 242.296875 177.113281 C 242.109375 176.660156 241.96875 176.191406 241.871094 175.710938 C 241.777344 175.230469 241.726562 174.746094 241.726562 174.257812 C 241.726562 173.765625 241.777344 173.28125 241.871094 172.800781 C 241.96875 172.320312 242.109375 171.851562 242.296875 171.398438 C 242.488281 170.949219 242.71875 170.519531 242.992188 170.109375 C 243.265625 169.703125 243.574219 169.324219 243.921875 168.980469 C 244.269531 168.632812 244.648438 168.324219 245.058594 168.050781 C 245.46875 167.777344 245.898438 167.550781 246.355469 167.363281 C 246.808594 167.175781 247.277344 167.03125 247.761719 166.9375 C 248.242188 166.839844 248.730469 166.792969 249.222656 166.792969 M 249.222656 161.128906 C 248.359375 161.128906 247.5 161.210938 246.652344 161.378906 C 245.800781 161.546875 244.976562 161.796875 244.179688 162.128906 C 243.378906 162.457031 242.617188 162.859375 241.898438 163.339844 C 241.179688 163.820312 240.515625 164.363281 239.902344 164.972656 C 239.289062 165.582031 238.742188 166.246094 238.261719 166.960938 C 237.78125 167.675781 237.375 168.433594 237.042969 169.230469 C 236.710938 170.027344 236.460938 170.847656 236.292969 171.691406 C 236.125 172.535156 236.039062 173.390625 236.039062 174.253906 C 236.039062 175.113281 236.125 175.96875 236.292969 176.8125 C 236.460938 177.65625 236.710938 178.476562 237.042969 179.273438 C 237.375 180.070312 237.78125 180.828125 238.261719 181.542969 C 238.742188 182.261719 239.289062 182.921875 239.902344 183.53125 C 240.515625 184.140625 241.179688 184.6875 241.898438 185.164062 C 242.617188 185.644531 243.378906 186.046875 244.179688 186.378906 C 244.976562 186.707031 245.800781 186.957031 246.652344 187.125 C 247.5 187.292969 248.359375 187.375 249.222656 187.375 C 250.089844 187.375 250.945312 187.292969 251.796875 187.125 C 252.644531 186.957031 253.46875 186.707031 254.269531 186.378906 C 255.066406 186.046875 255.828125 185.644531 256.546875 185.164062 C 257.265625 184.6875 257.933594 184.140625 258.542969 183.53125 C 259.15625 182.921875 259.703125 182.261719 260.183594 181.542969 C 260.664062 180.828125 261.070312 180.070312 261.402344 179.273438 C 261.734375 178.476562 261.984375 177.65625 262.152344 176.8125 C 262.320312 175.96875 262.40625 175.113281 262.40625 174.253906 C 262.40625 173.390625 262.320312 172.535156 262.152344 171.691406 C 261.984375 170.847656 261.734375 170.027344 261.402344 169.230469 C 261.070312 168.433594 260.664062 167.675781 260.183594 166.960938 C 259.703125 166.242188 259.15625 165.582031 258.546875 164.972656 C 257.933594 164.363281 257.265625 163.816406 256.546875 163.339844 C 255.828125 162.859375 255.066406 162.457031 254.269531 162.125 C 253.46875 161.796875 252.644531 161.546875 251.796875 161.378906 C 250.945312 161.210938 250.089844 161.125 249.222656 161.125 Z M 249.222656 161.128906 " fill-opacity="1" fill-rule="nonzero"/></g><path fill="#ffffff" d="M 238.324219 185.421875 L 228.542969 172.996094 C 228.457031 172.886719 228.417969 172.769531 228.421875 172.632812 C 228.425781 172.5 228.472656 172.382812 228.5625 172.28125 L 236.703125 163.109375 C 236.863281 162.929688 236.894531 162.730469 236.796875 162.507812 C 236.695312 162.289062 236.527344 162.179688 236.285156 162.183594 L 230.652344 162.183594 C 230.484375 162.179688 230.34375 162.242188 230.234375 162.363281 L 222.339844 171.332031 C 222.171875 171.523438 221.964844 171.578125 221.722656 171.488281 C 221.480469 171.398438 221.359375 171.222656 221.359375 170.96875 L 221.359375 162.738281 C 221.359375 162.585938 221.304688 162.453125 221.195312 162.34375 C 221.085938 162.238281 220.953125 162.183594 220.800781 162.183594 L 216.230469 162.183594 C 216.074219 162.183594 215.941406 162.238281 215.832031 162.34375 C 215.722656 162.453125 215.667969 162.585938 215.667969 162.738281 L 215.667969 185.765625 C 215.667969 185.917969 215.722656 186.050781 215.832031 186.160156 C 215.941406 186.269531 216.074219 186.324219 216.230469 186.324219 L 220.800781 186.324219 C 220.953125 186.324219 221.085938 186.269531 221.195312 186.160156 C 221.304688 186.050781 221.359375 185.917969 221.359375 185.765625 L 221.359375 180.933594 C 221.359375 180.605469 221.46875 180.316406 221.6875 180.074219 L 224.066406 177.390625 C 224.179688 177.261719 224.324219 177.199219 224.5 177.203125 C 224.675781 177.207031 224.816406 177.28125 224.925781 177.417969 L 231.757812 186.109375 C 231.871094 186.253906 232.019531 186.324219 232.203125 186.324219 L 237.867188 186.324219 C 238.105469 186.328125 238.277344 186.226562 238.382812 186.015625 C 238.492188 185.804688 238.46875 185.605469 238.324219 185.421875 Z M 238.324219 185.421875 " fill-opacity="1" fill-rule="nonzero"/></svg>