<svg xmlns="http://www.w3.org/2000/svg" xmlns:xlink="http://www.w3.org/1999/xlink" width="1920" zoomAndPan="magnify" viewBox="0 0 1440 809.999993" height="1080" preserveAspectRatio="xMidYMid meet" version="1.0"><defs><filter x="0%" y="0%" width="100%" height="100%" id="id1"><feColorMatrix values="0 0 0 0 1 0 0 0 0 1 0 0 0 0 1 0 0 0 1 0" color-interpolation-filters="sRGB"/></filter><clipPath id="id2"><path d="M 380.160156 0 L 1439.910156 0 L 1439.910156 810 L 380.160156 810 Z M 380.160156 0 " clip-rule="nonzero"/></clipPath><mask id="id3"><g filter="url(#id1)"><rect x="-144" width="1728" fill="#000000" y="-80.999999" height="971.999992" fill-opacity="0.0275"/></g></mask><clipPath id="id4"><path d="M 0.160156 0 L 1059.519531 0 L 1059.519531 810 L 0.160156 810 Z M 0.160156 0 " clip-rule="nonzero"/></clipPath><clipPath id="id5"><path d="M 1058.273438 -140.113281 C 1058.273438 -140.113281 943.097656 141.25 541.972656 51.203125 C 140.851562 -38.839844 -30.324219 260.351562 5.148438 515.003906 C 40.621094 769.660156 137.960938 857.824219 432.898438 726.535156 C 727.835938 595.242188 936.65625 660.816406 1058.269531 950.382812 C 1060.960938 952.4375 1058.273438 -140.113281 1058.273438 -140.113281 Z M 1058.273438 -140.113281 " clip-rule="nonzero"/></clipPath><clipPath id="id6"><rect x="0" width="1060" y="0" height="810"/></clipPath><mask id="id7"><g filter="url(#id1)"><rect x="-144" width="1728" fill="#000000" y="-80.999999" height="971.999992" fill-opacity="0.0275"/></g></mask><clipPath id="id8"><path d="M 0.160156 0 L 1059.519531 0 L 1059.519531 810 L 0.160156 810 Z M 0.160156 0 " clip-rule="nonzero"/></clipPath><clipPath id="id9"><path d="M 1058.273438 -140.113281 C 1058.273438 -140.113281 943.097656 141.25 541.972656 51.203125 C 140.851562 -38.839844 -30.324219 260.351562 5.148438 515.003906 C 40.621094 769.660156 137.960938 857.824219 432.898438 726.535156 C 727.835938 595.242188 936.65625 660.816406 1058.269531 950.382812 C 1060.960938 952.4375 1058.273438 -140.113281 1058.273438 -140.113281 Z M 1058.273438 -140.113281 " clip-rule="nonzero"/></clipPath><clipPath id="id10"><rect x="0" width="1060" y="0" height="810"/></clipPath></defs><g clip-path="url(#id2)"><g mask="url(#id3)"><g transform="matrix(1, 0, 0, 1, 380, 0.000000000000039746)"><g clip-path="url(#id6)"><g clip-path="url(#id4)"><g clip-path="url(#id5)"><path fill="#810bcf" d="M 0.160156 0 L 0.160156 810 L 1059.519531 810 L 1059.519531 0 Z M 0.160156 0 " fill-opacity="1" fill-rule="nonzero"/></g></g></g></g></g><g mask="url(#id7)"><g transform="matrix(1, 0, 0, 1, 380, 0.000000000000039746)"><g clip-path="url(#id10)"><g clip-path="url(#id8)"><g clip-path="url(#id9)"><path fill="#810bcf" d="M 0.160156 0 L 0.160156 810 L 1059.519531 810 L 1059.519531 0 Z M 0.160156 0 " fill-opacity="1" fill-rule="nonzero"/></g></g></g></g></g></g></svg>