<svg xmlns="http://www.w3.org/2000/svg" xmlns:xlink="http://www.w3.org/1999/xlink" width="1920" zoomAndPan="magnify" viewBox="0 0 1440 809.999993" height="1080" preserveAspectRatio="xMidYMid meet" version="1.0"><defs><filter x="0%" y="0%" width="100%" height="100%" id="id1"><feColorMatrix values="0 0 0 0 1 0 0 0 0 1 0 0 0 0 1 0 0 0 1 0" color-interpolation-filters="sRGB"/></filter><clipPath id="id2"><path d="M 666.71875 7.273438 L 1439.96875 7.273438 L 1439.96875 803.023438 L 666.71875 803.023438 Z M 666.71875 7.273438 " clip-rule="nonzero"/></clipPath><mask id="id3"><g filter="url(#id1)"><rect x="-144" width="1728" fill="#000000" y="-80.999999" height="971.999992" fill-opacity="0.0275"/></g></mask><clipPath id="id4"><path d="M 1 0.273438 L 773.761719 0.273438 L 773.761719 796.023438 L 1 796.023438 Z M 1 0.273438 " clip-rule="nonzero"/></clipPath><clipPath id="id5"><path d="M 772.777344 0.273438 C 772.777344 0.273438 688.734375 205.585938 396.054688 139.878906 C 103.375 74.171875 -21.523438 292.496094 4.359375 478.320312 C 30.238281 664.144531 101.265625 728.480469 316.46875 632.675781 C 531.671875 536.871094 684.035156 584.71875 772.773438 796.019531 C 774.734375 797.519531 772.777344 0.273438 772.777344 0.273438 Z M 772.777344 0.273438 " clip-rule="nonzero"/></clipPath><clipPath id="id6"><rect x="0" width="774" y="0" height="797"/></clipPath><mask id="id7"><g filter="url(#id1)"><rect x="-144" width="1728" fill="#000000" y="-80.999999" height="971.999992" fill-opacity="0.0275"/></g></mask><clipPath id="id8"><path d="M 1 0.273438 L 773.761719 0.273438 L 773.761719 796.023438 L 1 796.023438 Z M 1 0.273438 " clip-rule="nonzero"/></clipPath><clipPath id="id9"><path d="M 772.777344 0.273438 C 772.777344 0.273438 688.734375 205.585938 396.054688 139.878906 C 103.375 74.171875 -21.523438 292.496094 4.359375 478.320312 C 30.238281 664.144531 101.265625 728.480469 316.46875 632.675781 C 531.671875 536.871094 684.035156 584.71875 772.773438 796.019531 C 774.734375 797.519531 772.777344 0.273438 772.777344 0.273438 Z M 772.777344 0.273438 " clip-rule="nonzero"/></clipPath><clipPath id="id10"><rect x="0" width="774" y="0" height="797"/></clipPath></defs><rect x="-144" width="1728" fill="#ffffff" y="-80.999999" height="971.999992" fill-opacity="1"/><rect x="-144" width="1728" fill="#ffffff" y="-80.999999" height="971.999992" fill-opacity="1"/><rect x="-144" width="1728" fill="#ffffff" y="-80.999999" height="971.999992" fill-opacity="1"/><rect x="-144" width="1728" fill="#ffffff" y="-80.999999" height="971.999992" fill-opacity="1"/><g clip-path="url(#id2)"><g mask="url(#id3)"><g transform="matrix(1, 0, 0, 1, 666, 7)"><g clip-path="url(#id6)"><g clip-path="url(#id4)"><g clip-path="url(#id5)"><path fill="#810bcf" d="M 0.71875 0.273438 L 0.71875 796.023438 L 773.761719 796.023438 L 773.761719 0.273438 Z M 0.71875 0.273438 " fill-opacity="1" fill-rule="nonzero"/></g></g></g></g></g><g mask="url(#id7)"><g transform="matrix(1, 0, 0, 1, 666, 7)"><g clip-path="url(#id10)"><g clip-path="url(#id8)"><g clip-path="url(#id9)"><path fill="#810bcf" d="M 0.71875 0.273438 L 0.71875 796.023438 L 773.761719 796.023438 L 773.761719 0.273438 Z M 0.71875 0.273438 " fill-opacity="1" fill-rule="nonzero"/></g></g></g></g></g></g></svg>