<svg xmlns="http://www.w3.org/2000/svg" xmlns:xlink="http://www.w3.org/1999/xlink" width="1920" zoomAndPan="magnify" viewBox="0 0 1440 809.999993" height="1080" preserveAspectRatio="xMidYMid meet" version="1.0"><defs><filter x="0%" y="0%" width="100%" height="100%" id="id1"><feColorMatrix values="0 0 0 0 1 0 0 0 0 1 0 0 0 0 1 0 0 0 1 0" color-interpolation-filters="sRGB"/></filter><clipPath id="id2"><path d="M 0 0 L 1024.5 0 L 1024.5 810 L 0 810 Z M 0 0 " clip-rule="nonzero"/></clipPath><mask id="id3"><g filter="url(#id1)"><rect x="-144" width="1728" fill="#000000" y="-80.999999" height="971.999992" fill-opacity="0.0275"/></g></mask><clipPath id="id4"><path d="M 0.238281 0 L 1024.5 0 L 1024.5 810 L 0.238281 810 Z M 0.238281 0 " clip-rule="nonzero"/></clipPath><clipPath id="id5"><path d="M 1.574219 960.105469 C 1.574219 960.105469 112.921875 688.226562 500.703125 775.238281 C 888.484375 862.246094 1053.96875 573.136719 1019.675781 327.066406 C 985.382812 80.992188 891.28125 -4.203125 606.152344 122.664062 C 321.023438 249.53125 119.148438 186.167969 1.582031 -93.640625 C -1.019531 -95.625 1.574219 960.105469 1.574219 960.105469 Z M 1.574219 960.105469 " clip-rule="nonzero"/></clipPath><clipPath id="id6"><rect x="0" width="1025" y="0" height="810"/></clipPath><mask id="id7"><g filter="url(#id1)"><rect x="-144" width="1728" fill="#000000" y="-80.999999" height="971.999992" fill-opacity="0.0275"/></g></mask><clipPath id="id8"><path d="M 0.238281 0 L 1024.5 0 L 1024.5 810 L 0.238281 810 Z M 0.238281 0 " clip-rule="nonzero"/></clipPath><clipPath id="id9"><path d="M 1.574219 960.105469 C 1.574219 960.105469 112.921875 688.226562 500.703125 775.238281 C 888.484375 862.246094 1053.96875 573.136719 1019.675781 327.066406 C 985.382812 80.992188 891.28125 -4.203125 606.152344 122.664062 C 321.023438 249.53125 119.148438 186.167969 1.582031 -93.640625 C -1.019531 -95.625 1.574219 960.105469 1.574219 960.105469 Z M 1.574219 960.105469 " clip-rule="nonzero"/></clipPath><clipPath id="id10"><rect x="0" width="1025" y="0" height="810"/></clipPath></defs><g clip-path="url(#id2)"><g mask="url(#id3)"><g transform="matrix(1, 0, 0, 1, 0.000000000000000028, 0.000000000000039746)"><g clip-path="url(#id6)"><g clip-path="url(#id4)"><g clip-path="url(#id5)"><path fill="#810bcf" d="M 1024.5 810 L 1024.5 0 L 0.238281 0 L 0.238281 810 Z M 1024.5 810 " fill-opacity="1" fill-rule="nonzero"/></g></g></g></g></g><g mask="url(#id7)"><g transform="matrix(1, 0, 0, 1, 0.000000000000000028, 0.000000000000039746)"><g clip-path="url(#id10)"><g clip-path="url(#id8)"><g clip-path="url(#id9)"><path fill="#810bcf" d="M 1024.5 810 L 1024.5 0 L 0.238281 0 L 0.238281 810 Z M 1024.5 810 " fill-opacity="1" fill-rule="nonzero"/></g></g></g></g></g></g></svg>